# xmcd CD database file
#
# Track frame offsets:
#	150
#	16992
#	34692
#	49902
#	67442
#	86127
#	101917
#	114972
#	135700
#	150527
#	164030
#
# Disc length: 2493 seconds
#
# Revision: 1
# Processed by: cddbd v1.5.1PL0 Copyright (c) Steve Scherf et al.
# Submitted via: CDex 1.51
#
DISCID=9a09bb0b
DTITLE=南佳孝 - SOUTH OF THE BORDER
DYEAR=1978
DGENRE=J-pop
TTITLE0=夏の女優
TTITLE1=プールサイド
TTITLE2=朝焼けにダンス
TTITLE3=日付変更線
TTITLE4=常夜灯
TTITLE5=夜間飛行
TTITLE6=ワンナイト・ヒーロー
TTITLE7=ブルー・メロディー
TTITLE8=早くあいつに逢いたい
TTITLE9=スフィンクスの夢
TTITLE10=終末のサンバ
EXTD=YEAR: 1978
EXTT0=
EXTT1=
EXTT2=
EXTT3=
EXTT4=
EXTT5=
EXTT6=
EXTT7=
EXTT8=
EXTT9=
EXTT10=
PLAYORDER=
